<?xml version="1.0" encoding="utf-8"?>
<!-- Generator: Adobe Illustrator 24.0.1, SVG Export Plug-In . SVG Version: 6.00 Build 0)  -->
<svg version="1.1" id="_x3C_Layer_x3E_" xmlns="http://www.w3.org/2000/svg" xmlns:xlink="http://www.w3.org/1999/xlink" x="0px"
	 y="0px" viewBox="0 0 3015 1675" style="enable-background:new 0 0 3015 1675;" xml:space="preserve">
<style type="text/css">
	.st0{fill:#EFA26F;}
	.st1{fill:#FFC197;}
	.st2{fill:#EFCBAB;}
	.st3{fill:#FCECDB;}
	.st4{fill:#B2443B;}
	.st5{fill:#FFB27D;}
	.st6{fill:#FFB93E;}
	.st7{fill:#2B478B;}
	.st8{fill:#F99746;}
	.st9{fill:#FFBF8F;}
	.st10{fill:#2E3552;}
</style>
<g>
	<g>
		<g>
			<g>
				<path class="st0" d="M1594.6,1332.2c0.5,16,2.6,42,2.9,43l-21.7,7.2h-8.7c0.2-6.8,0.8-23.8,0.8-35.3c0-4.6-0.1-8.2-0.3-10
					c-0.3-2.9-1.5-4.7-2.9-5.9c-2.3-2-4.2-4.4-5.7-7.1c-0.8-1.5-1.4-3-1.9-4.6l-3.2-10.6l-3.2-10.6l-0.2-0.7c0,0,0.6-3.8,1.7-8.7
					c0,0,0-0.1,0-0.1v0c0.7-3,1.6-6.3,2.7-9.5c0.1-0.2,0.1-0.4,0.2-0.6c1.5-4.2,3.4-7.9,5.6-10c0,0,0,0,0,0c0.8-0.7,1.6-1.2,2.4-1.4
					c2.9-0.8,8-1,12.4-0.1c3,0.7,5.8,1.8,7.6,3.7c0.2-0.7,0.4-1.5,0.6-2.2c1-3.7,1.7-7.3,3.4-9.5c1.2-1.5,2.5-2.7,3.7-3.5
					c1.7-1.1,3.4-1.7,4.8-2c0.9-0.2,1.7,0.1,2.3,0.7c0.1,0.1,0.1,0.1,0.2,0.2c0.5,0.7,0.7,1.5,0.4,2.4c-0.6,1.7-1.4,3.9-2,6.5
					c-1.7,7-2.5,16.5,1.8,24.6c8,14.8-2.7,25.9-3.9,32.8C1594.4,1322.5,1594.4,1326.8,1594.6,1332.2z"/>
				<path class="st1" d="M1596,1263l0.8,0.4c0.6-2.6,3.4-7.4,4.1-9.1c0.3-0.9-1.5-0.8-2.2-0.3c-0.5,0.2-1.1,1.1-1.4,1.5
					c-0.8,1.3-1.8,3.1-2.4,4.7C1594.5,1261.3,1594.9,1262.5,1596,1263z"/>
			</g>
			<g>
				<g>
					<path class="st2" d="M1543,1342.4l0.9,0.4c2.9,1.4,5.9,1.2,6.7-0.6l50.7-108.4l-6.5-3.2l-55.3,106.1
						C1538.6,1338.5,1540.2,1341,1543,1342.4z"/>
				</g>
				<path class="st2" d="M1526.5,1200.1l140.8,69.6c4,2,8.8,0.3,10.8-3.7l64.3-130c2-4,0.3-8.8-3.7-10.8l-140.8-69.6
					c-4-2-8.8-0.3-10.8,3.7l-64.3,130C1520.9,1193.3,1522.5,1198.2,1526.5,1200.1z"/>
				<path class="st3" d="M1555.4,1205.9l89.8,44.4c14,6.9,31,1.1,37.9-12.8l39.5-80c6.9-14,1.1-31-12.8-37.9l-89.8-44.4
					c-14-6.9-31-1.1-37.9,12.8l-39.5,80C1535.6,1181.9,1541.4,1199,1555.4,1205.9z"/>
				<path class="st4" d="M1670.1,1125l-27.4-11.6c-3-1.3-5.4-1.7-7-1.1c-1.6,0.5-3.3,2.2-5,5.1c-7.3,12.2-12,20.1-14,23.6
					c-0.1,0.3-0.8,1.4-2.1,3.4c-1,1.6-1.5,2.6-1.7,3.1c-2,4.7-1.2,7.9,2.5,9.5c1.8,0.7,4.5,1.3,8.2,1.5c3.7,0.3,6.4,0.8,8.2,1.5
					c9.3,3.9,11.8,11.1,7.5,21.3c-2,4.7-5,8-9,9.9c-4,2-8.3,1.9-13,0c-4-1.7-7.4-4.8-10.3-9.3c-2.8-4.5-4.9-7-6.3-7.6
					c-1.8-0.7-3.5-0.7-5.2,0.2c-1.7,0.9-2.9,2.2-3.7,4c-0.9,2.1-0.9,4.5-0.1,7.2c1.3,4.1,3.9,8.1,7.9,12c3.6,3.5,7.6,6.2,11.9,8
					c6.3,2.7,12.8,3.4,19.3,2.3c6.6-1.2,12.3-4.1,17.1-8.9c3.2-3.2,5.9-7.3,8.1-12.4c3.3-7.7,3.7-15.2,1.4-22.5
					c-2.3-7.7-7.3-13.2-15-16.4c-3.1-1.3-6.6-2.1-10.5-2.3l9.8-16.3l22.8,9.6c5.6,2.4,9.4,1.3,11.3-3.3
					C1677.7,1131,1675.8,1127.4,1670.1,1125z"/>
			</g>
			<g>
				<path class="st5" d="M1561.3,1268.7l21.6,12.1c1.8,1.1,3.5,0.8,4.6-1l2-3.3c1.1-1.8,0.5-4.2-1.3-5.2l-16.9-11.3
					c-2.2-1.4-5.3-0.8-6.8,0.9C1564.4,1260.9,1557.7,1266.8,1561.3,1268.7z"/>
				<path class="st5" d="M1554.4,1278.7l21.9,13.1c2.8,1.7,6.6,0.8,8.3-2.1l0,0c1.7-2.8,0.8-6.6-2.1-8.3l-21.9-13.1
					c-2.8-1.7-5.5-2.8-8.3,2.1l0,0C1549.5,1274.2,1551.6,1277,1554.4,1278.7z"/>
				<path class="st5" d="M1551.2,1288.1l17.8,9.6c2.5,1.5,5.1,1.4,6.6-1.1l0,0c1.5-2.5,0.7-5.7-1.8-7.1l-17.2-10.3
					c-2.5-1.5-4.9-3.1-7.1,1.8l0,0C1547.6,1284.3,1548.7,1286.7,1551.2,1288.1z"/>
				<path class="st5" d="M1547.6,1296.2l10.1,6.1c2.1,1.3,4.9,0.6,6.2-1.5l0,0c1.3-2.1,0.6-4.9-1.5-6.2l-10.1-6.1
					c-2.1-1.3-4.9-0.6-6.2,1.5l0,0C1544.8,1292.2,1545.5,1294.9,1547.6,1296.2z"/>
				<path class="st1" d="M1589.1,1274.3c-1.2-0.9-2.9-2.1-4.5-2.8c-1.1-0.5-2.3-0.1-2.9,0.9l-1.7,2.9c-0.6,1-0.3,2.3,0.7,2.9
					c1.2,0.7,3,1.7,4.7,2.5c1.2,0.5,2.7,0,3.3-1.2l1-1.9C1590.5,1276.5,1590.2,1275.1,1589.1,1274.3z"/>
				<path class="st1" d="M1584.9,1285.9c-1.2-0.9-2.9-2-4.4-2.8c-1.1-0.5-2.3-0.1-2.9,0.9l-1.7,2.9c-0.6,1-0.3,2.3,0.7,2.9
					c1.2,0.7,2.9,1.7,4.7,2.5c1.2,0.5,2.6,0,3.3-1.1l1-1.9C1586.2,1288.1,1585.9,1286.6,1584.9,1285.9z"/>
				<path class="st1" d="M1576.3,1293.1c-1-0.8-2.5-1.7-3.7-2.3c-0.9-0.4-2-0.1-2.5,0.7l-1.4,2.4c-0.5,0.8-0.2,1.9,0.6,2.5
					c1,0.6,2.5,1.5,4,2.1c1,0.4,2.3,0,2.8-1l0.9-1.6C1577.4,1295,1577.1,1293.8,1576.3,1293.1z"/>
				<path class="st1" d="M1564.4,1298c-0.9-0.7-2.1-1.5-3.2-2c-0.8-0.4-1.7-0.1-2.1,0.6l-1.3,2.1c-0.4,0.7-0.2,1.7,0.5,2.1
					c0.9,0.5,2.2,1.3,3.4,1.8c0.9,0.4,2,0,2.4-0.8l0.8-1.4C1565.4,1299.6,1565.2,1298.5,1564.4,1298z"/>
			</g>
			<path class="st6" d="M1603.4,1382.3h-43.2c3.5-18.7,6.6-33,6.6-33c0.3-0.8,0.7-1.5,1.2-2.3c5.4-8,20.4-13,26.6-14.8
				c1.7-0.5,2.7-0.7,2.7-0.7S1600.2,1354.8,1603.4,1382.3z"/>
		</g>
		<g>
			<g>
				<path class="st0" d="M1336.5,1381.5l-1.5,0.8h-29c-1.3-10-3-22.9-4.3-30c-0.3-1.8-0.6-3.2-0.9-4.1c-0.4-1.5-1.1-2.7-1.8-3.6
					c-2.8-3.5-7.1-3.3-7.1-3.3l-3.2-6.6l-10.8-22.4v0l-0.3-0.6c0,0,0-3.9,0.4-9c0,0,0-0.1,0-0.1c0.2-3.1,0.6-6.6,1.2-9.9
					c0-0.2,0.1-0.4,0.1-0.6v0c0.8-4.4,2.1-8.4,4-10.8c0,0,0,0,0,0c0.7-0.8,1.4-1.5,2.2-1.8c2.7-1.2,7.5-2.2,12-2.1
					c3.3,0.1,6.4,0.9,8.5,2.5c0.1-0.8,0.2-1.5,0.3-2.3c0.2-2.1,0.4-4.2,0.7-6l0,0c0.3-1.5,0.6-2.9,1.2-4c2.1-4,5.2-5.9,7.7-6.8
					c0.9-0.3,1.7-0.1,2.4,0.4c0.1,0.1,0.2,0.1,0.2,0.2c0.6,0.6,0.9,1.4,0.8,2.4c-0.4,1.7-0.7,4-0.9,6.5c0,0.1,0,0.2,0,0.3
					c-0.6,7.2,0.1,16.8,5.7,24.2c10.4,13.5,1.4,26.2,1.3,33.3c-0.1,2,0.7,6.8,1.9,12.9C1330.2,1356.6,1336,1380.6,1336.5,1381.5z"/>
				<path class="st4" d="M1317.3,1270.1l0.9,0.3c0.2-2.6,2.3-8,2.6-9.7c0.2-0.9-1.6-0.6-2.3,0.1c-0.4,0.3-0.9,1.2-1.1,1.7
					c-0.6,1.4-1.3,3.3-1.7,5C1315.5,1268.6,1316.2,1269.7,1317.3,1270.1z"/>
			</g>
			<path class="st7" d="M1349.6,1382.3h-52.9c0.2-4.5,0.5-8.7,0.7-12.3c0.7-9,4.3-17.7,4.3-17.7c14.9-2.6,25.4-11.6,25.4-11.6
				s7.8,1.7,11.7,12C1342,1361.2,1345.7,1371.4,1349.6,1382.3z"/>
			<g>
				<g>
					<path class="st2" d="M1290.1,1363.7l1,0.1c3.2,0.4,6-0.8,6.2-2.7l12.9-118.9l-7.2-0.9l-18,118.3
						C1284.6,1361.4,1286.9,1363.3,1290.1,1363.7z"/>
				</g>
				<path class="st2" d="M1228.4,1234.4l155.8,20.3c4.4,0.6,8.5-2.6,9-7l18.7-143.8c0.6-4.4-2.6-8.5-7-9l-155.8-20.3
					c-4.4-0.6-8.5,2.6-9,7l-18.7,143.8C1220.9,1229.8,1224,1233.8,1228.4,1234.4z"/>
				<path class="st3" d="M1257.6,1230.5l99.3,12.9c15.4,2,29.7-9,31.7-24.4l11.5-88.5c2-15.4-9-29.7-24.4-31.7l-99.3-12.9
					c-15.4-2-29.7,9-31.7,24.4l-11.5,88.5C1231.2,1214.2,1242.2,1228.5,1257.6,1230.5z"/>
				<path class="st4" d="M1343.5,1142.6c0.9-7.3-0.9-13.4-5.3-18.5c-4.4-5-10.2-8-17.6-8.9c-5.5-0.7-10.6-0.1-15.5,1.7
					c-5.3,1.9-9.5,5-12.4,9.2c-1.8,2.5-2.8,5.1-3.2,7.8c-0.3,2.2,0.2,4.2,1.3,6.2c1.1,2,2.7,3.1,4.8,3.3c2.9,0.3,5.1-0.9,6.5-3.8
					c1.8-3.8,3.7-6.5,5.8-7.9c2.5-1.6,5.7-2.2,9.7-1.8c3.2,0.4,5.6,1.6,7.3,3.7c1.7,2.1,2.3,4.7,1.9,7.9c-0.6,5.4-2.7,8.9-6.2,10.7
					c-0.1,0.1-3.3,0.9-9.7,2.4c-3.4,0.9-5.3,2.9-5.7,6c-0.5,4.2,2,7,7.6,8.1c9.8,2.1,14.3,7.4,13.3,15.9c-0.4,3.5-1.4,6.3-2.8,8.4
					c-3.1,4.2-7.7,5.9-13.8,5.2c-4.5-0.5-8-2.5-10.5-5.9c-0.5-0.6-2-3.6-4.6-9c-1.6-3.3-3.6-5-5.8-5.3c-2.2-0.3-4,0.3-5.6,1.7
					c-1.6,1.4-2.5,3.2-2.7,5.3c-0.9,7.5,2.3,14.5,9.7,20.8c4.6,4,10.5,6.4,17.6,7.2c9.2,1.1,17.1-0.6,23.7-5.1
					c7-4.7,11-11.6,12.1-20.6c1.4-11.6-3-20.2-13-25.7C1338,1157.8,1342.4,1151.3,1343.5,1142.6z"/>
			</g>
			<g>
				<path class="st5" d="M1283.6,1281.3l23.4,8.7c2,0.8,3.6,0.3,4.4-1.7l1.5-3.7c0.8-2-0.2-4.2-2.1-5l-18.6-8.6
					c-2.4-1.1-5.4,0-6.7,1.9C1285.5,1273,1279.7,1279.9,1283.6,1281.3z"/>
				<path class="st5" d="M1278.4,1292.3l23.8,9.6c3.1,1.2,6.7-0.3,7.9-3.4l0,0c1.3-3.1-0.3-6.7-3.4-7.9l-23.8-9.6
					c-3.1-1.2-5.9-1.9-7.9,3.4l0,0C1272.7,1288.6,1275.3,1291,1278.4,1292.3z"/>
				<path class="st5" d="M1276.6,1302.2l19.2,6.8c2.7,1.1,5.3,0.6,6.4-2.1l0,0c1.1-2.7-0.2-5.7-2.9-6.8l-18.8-7.6
					c-2.7-1.1-5.3-2.3-6.8,2.9l0,0C1272.4,1298.9,1274,1301.1,1276.6,1302.2z"/>
				<path class="st5" d="M1274.3,1310.8l11,4.4c2.3,0.9,5-0.2,5.9-2.5l0,0c0.9-2.3-0.2-5-2.5-5.9l-11-4.4c-2.3-0.9-5,0.2-5.9,2.5
					l0,0C1270.9,1307.2,1272,1309.8,1274.3,1310.8z"/>
				<path class="st4" d="M1311.8,1282.4c-1.4-0.7-3.2-1.6-4.9-2.1c-1.1-0.3-2.3,0.2-2.8,1.3l-1.3,3.2c-0.4,1.1,0.1,2.3,1.2,2.8
					c1.3,0.6,3.2,1.3,5.1,1.7c1.3,0.3,2.7-0.4,3.1-1.7l0.7-2C1313.5,1284.4,1313,1283,1311.8,1282.4z"/>
				<path class="st4" d="M1309.4,1294.6c-1.4-0.7-3.2-1.6-4.8-2.1c-1.1-0.3-2.3,0.2-2.7,1.3l-1.2,3.1c-0.4,1.1,0.1,2.3,1.2,2.8
					c1.3,0.5,3.2,1.2,5,1.7c1.3,0.3,2.6-0.4,3.1-1.7l0.7-2C1311.1,1296.5,1310.6,1295.2,1309.4,1294.6z"/>
				<path class="st4" d="M1302.4,1303.2c-1.2-0.6-2.7-1.3-4.1-1.7c-1-0.3-2,0.2-2.3,1.1l-1.1,2.7c-0.4,0.9,0.1,2,1,2.4
					c1.1,0.5,2.7,1.1,4.3,1.4c1.1,0.3,2.2-0.3,2.6-1.4l0.6-1.7C1303.8,1304.8,1303.4,1303.7,1302.4,1303.2z"/>
				<path class="st4" d="M1291.4,1309.9c-1-0.5-2.4-1.2-3.6-1.5c-0.8-0.2-1.7,0.2-2,1l-0.9,2.3c-0.3,0.8,0.1,1.7,0.9,2
					c1,0.4,2.3,0.9,3.7,1.3c1,0.2,1.9-0.3,2.3-1.2l0.5-1.5C1292.6,1311.3,1292.2,1310.3,1291.4,1309.9z"/>
			</g>
		</g>
		<g>
			<g>
				<path class="st0" d="M1497.2,1155.3l-18.5,31.5c0,0-7.5-1-10.5,6.9c-3,7.9-12.1,52.6-12.1,52.6l-30.4-19.1
					c0.9-1.3,17-50.5,17.5-58.4c0.5-7.9-8.3-22.7,4.4-36.7c6.7-7.3,8.4-17.4,8.5-25.3c0-0.3,0-0.6,0-0.9c0-2.9-0.2-5.6-0.4-7.6
					c0-0.1,0-0.3,0-0.4c0-0.9,0.4-1.6,1.1-2.1c0.8-0.6,1.9-0.8,2.9-0.4c2.7,1.2,5.9,3.6,7.9,8.2c1.5,3.4,1,8.5,1.3,13.8
					c5.9-4,17.7-1.5,22.7,1.3C1500,1123.6,1497.2,1155.3,1497.2,1155.3z"/>
				<path class="st1" d="M1459.2,1104.9c0,1-0.9,1.8-2.2,1.9l-0.9,0c0-0.3,0-0.6,0-0.9c0-2.9-0.2-5.6-0.4-7.6c0-0.1,0-0.3,0-0.4
					c0.6,0.1,1.4,0.5,1.8,0.9c0.4,0.3,0.8,1.2,0.9,1.6C1458.7,1101.7,1459.1,1103.5,1459.2,1104.9z"/>
			</g>
			<path class="st8" d="M1436.5,1182.3c0,0,26.7,12.8,29.3,26.7c0,0,0.1,128-12.2,131.9c-12.3,3.9-65.2,4.7-64.3-10.6
				C1390.2,1315,1436.5,1182.3,1436.5,1182.3z"/>
			<g>
				<g>
					<path class="st2" d="M1481.6,1188.8l-1,0.1c-3.2,0.4-5.9-0.9-6.1-2.8l-11.4-119.1l7.2-0.8l16.5,118.5
						C1487,1186.6,1484.7,1188.4,1481.6,1188.8z"/>
				</g>
				<path class="st2" d="M1544.8,1060.3l-156,18.3c-4.4,0.5-8.4-2.7-8.9-7.1l-16.9-144c-0.5-4.4,2.7-8.4,7.1-8.9l156-18.3
					c4.4-0.5,8.4,2.7,8.9,7.1l16.9,144C1552.4,1055.8,1549.2,1059.8,1544.8,1060.3z"/>
				<path class="st3" d="M1515.7,1056.1l-99.5,11.7c-15.5,1.8-29.6-9.4-31.4-24.8l-10.4-88.6c-1.8-15.5,9.4-29.6,24.8-31.4
					l99.5-11.7c15.5-1.8,29.6,9.4,31.4,24.8l10.4,88.6C1542.3,1040.1,1531.1,1054.3,1515.7,1056.1z"/>
				<path class="st4" d="M1487.7,1001.3c-0.5-3.9-2.3-5.9-5.4-6.1c-0.8-0.3-2.9-0.3-6.3,0.1l-5.4-43.2c-0.6-5.3-2.2-9.1-4.7-11.4
					c-2.4-2.3-5.6-3.2-9.7-2.7c-3.2,0.4-5.7,1.5-7.7,3.3c-0.1,0.1-0.1,0.1-0.2,0.2c-1.7,1.5-3.2,4-4.8,7.3l-21,45.6
					c-2.4,5.2-3.4,9.9-2.9,13.9c0.7,5.4,4.7,7.7,12.1,6.8l30.3-3.7l1.8,14.8c0.8,6.1,3.6,8.8,8.5,8.2c5.5-0.7,7.9-4,7.2-10
					l-1.8-14.9c3.4-0.4,5.8-1.1,7.1-1.9C1487.2,1006.4,1488.1,1004.3,1487.7,1001.3z M1435.2,1000.5c13.2-28.9,19.9-43.5,20.1-43.7
					l5,40.6L1435.2,1000.5z"/>
			</g>
			<g>
				<path class="st5" d="M1493.6,1121.1l-0.2,0.1l-26.7,7.4c-1.7,0.5-3.2,0.2-4.1-0.9c-0.3-0.4-0.5-0.8-0.6-1.3l-1.3-4.2
					c-0.2-0.5-0.2-1-0.2-1.5c0.1-1.7,1.3-3.3,3-3.8l21.4-7.8c2.8-1,5.9,0.5,7.2,2.8C1492,1111.8,1497.6,1119.7,1493.6,1121.1z"/>
				<path class="st5" d="M1503.3,1128c0.2,2.5-1.3,4.2-3.4,5.2c-0.6,0.3-1.1,0.5-1.8,0.7l-26.4,8.2l-0.9,0.3c-2,0.6-4.1,0.2-5.8-0.9
					c-1.2-0.8-2.2-2.1-2.7-3.6c-0.1-0.5-0.2-1-0.3-1.5c-0.1-0.8,0-1.6,0.3-2.4c0.6-2.1,2.2-3.9,4.5-4.6l26.5-8.2l0.2-0.1l0.5-0.2
					c3.5-1.1,6.7-1.6,8.4,4.5C1503,1126.3,1503.2,1127.2,1503.3,1128z"/>
				<path class="st5" d="M1503.3,1139.3c0.2,2.9-1.4,4.7-3.9,5.5c-0.1,0-0.2,0.1-0.3,0.1l-4.8,1.3l-17.1,4.5
					c-1.8,0.6-3.6,0.5-4.9-0.3c-0.9-0.5-1.6-1.4-1.9-2.6c-0.1-0.4-0.2-0.8-0.2-1.3c-0.1-1,0.1-2,0.5-2.8c0.3-0.6,0.6-1.2,1.1-1.7
					c0.7-0.7,1.5-1.2,2.5-1.5l21.5-6.6c1.5-0.5,2.9-0.9,4.2-0.7c0,0,0,0,0,0c1.4,0.3,2.5,1.5,3.1,4.5
					C1503.1,1138.3,1503.3,1138.8,1503.3,1139.3z"/>
				<path class="st5" d="M1504.4,1149.5c0.2,2.3-1.2,4.5-3.5,5.2l-12.6,3.9c-1.5,0.5-3.1,0.2-4.4-0.7c-0.9-0.6-1.6-1.5-1.9-2.6
					c-0.1-0.4-0.2-0.7-0.2-1.1c-0.1-0.7,0-1.4,0.3-2c0.5-1.5,1.7-2.7,3.3-3.2l9-2.8l0,0l3.6-1.1c0.5-0.2,1-0.2,1.5-0.2c0,0,0,0,0,0
					c2.1,0,4.1,1.4,4.8,3.5C1504.3,1148.8,1504.4,1149.1,1504.4,1149.5z"/>
				<path class="st1" d="M1469.7,1126.3c-1.5,0.5-3.7,1.1-5.8,1.4c-0.4,0.1-0.9,0-1.3-0.1c-0.3-0.4-0.5-0.8-0.6-1.3l-1.3-4.2
					c-0.2-0.5-0.2-1-0.2-1.5c0.3-0.4,0.7-0.7,1.1-0.9c1.6-0.7,3.7-1.5,5.6-1.8c1.3-0.3,2.6,0.5,3,1.7l1.1,3.6
					C1471.6,1124.6,1470.9,1125.9,1469.7,1126.3z"/>
				<path class="st1" d="M1471.1,1140c-1.5,0.5-3.6,1.1-5.7,1.4c-0.1,0-0.2,0-0.3,0c-1.2-0.8-2.2-2.1-2.7-3.6
					c-0.1-0.5-0.2-1-0.3-1.5c-0.1-0.8,0-1.6,0.3-2.4c0.2-0.2,0.5-0.3,0.7-0.5c1.6-0.7,3.7-1.5,5.5-1.8c1.3-0.3,2.5,0.5,2.9,1.7
					l1.1,3.6C1473,1138.2,1472.4,1139.6,1471.1,1140z"/>
				<path class="st1" d="M1477.3,1149.2c-1.3,0.4-3.1,0.9-4.9,1.2c-0.1,0-0.1,0-0.1,0c-0.9-0.5-1.6-1.4-1.9-2.6
					c-0.1-0.4-0.2-0.8-0.2-1.3c-0.1-1,0.1-2,0.5-2.8c1.3-0.6,3.1-1.2,4.6-1.5c1.1-0.2,2.2,0.4,2.5,1.5l0.9,3
					C1479,1147.7,1478.4,1148.8,1477.3,1149.2z"/>
				<path class="st1" d="M1488,1156.9c-1.1,0.3-2.6,0.8-4.1,1c-0.9-0.6-1.6-1.5-1.9-2.6c-0.1-0.4-0.2-0.7-0.2-1.1
					c-0.1-0.7,0-1.4,0.3-2c0,0,0.1,0,0.1,0c1.2-0.5,2.7-1.1,4.1-1.4c0.9-0.2,1.9,0.4,2.2,1.3l0.8,2.6
					C1489.5,1155.6,1488.9,1156.6,1488,1156.9z"/>
			</g>
			<path class="st9" d="M1441.1,1177.9c0,0-9.8,6.2-14.7,17.2c0,0,14.4,11,21.7,13.2l10.7-10.8l-0.1,14.1c0,0,8.6,2.5,12.3,1.3
				c0,0,0.7-15.1-2.1-21C1468.9,1192,1447,1188.2,1441.1,1177.9z"/>
			<path class="st8" d="M1445,1202.5c-0.1-0.9,0.6-1.8,1.6-1.8c0.9-0.1,1.8,0.6,1.8,1.6c0.1,0.9-0.6,1.8-1.6,1.8
				C1445.9,1204.2,1445.1,1203.5,1445,1202.5z"/>
			<path class="st8" d="M1459,1382.3h-71.7c0.6-26.8,2-52,2-52l69.4-0.1c-0.2,0.6-0.4,1.4-0.6,2.3c0,0,0,0,0,0
				C1456.8,1340.9,1457.7,1362.5,1459,1382.3z"/>
		</g>
	</g>
	<path class="st10" d="M1751.4,1382.3h-539.3c-0.6,0-1.2-0.5-1.2-1.2l0,0c0-0.6,0.5-1.2,1.2-1.2h539.3c0.6,0,1.2,0.5,1.2,1.2v0
		C1752.6,1381.8,1752.1,1382.3,1751.4,1382.3z"/>
</g>
</svg>
