<?xml version="1.0" encoding="utf-8"?>
<!-- Generator: Adobe Illustrator 24.0.1, SVG Export Plug-In . SVG Version: 6.00 Build 0)  -->
<svg version="1.1" id="_x3C_Layer_x3E_" xmlns="http://www.w3.org/2000/svg" xmlns:xlink="http://www.w3.org/1999/xlink" x="0px"
	 y="0px" viewBox="0 0 999.8 482.1" style="enable-background:new 0 0 999.8 482.1;" xml:space="preserve">
<style type="text/css">
	.st0{fill:url(#SVGID_1_);}
	.st1{fill:url(#SVGID_2_);}
	.st2{opacity:0.5;fill:url(#SVGID_3_);}
	.st3{fill:#FFFFFF;}
	.st4{fill:#EFA26F;}
	.st5{fill:#FFC197;}
	.st6{fill:#EFCBAB;}
	.st7{fill:#FCECDB;}
	.st8{fill:#B2443B;}
	.st9{fill:#FFB27D;}
	.st10{fill:#F99746;}
	.st11{fill:#FFB93E;}
	.st12{fill:#2B478B;}
	.st13{fill:#FFBF8F;}
	.st14{fill:#2E3552;}
</style>
<g>
	<linearGradient id="SVGID_1_" gradientUnits="userSpaceOnUse" x1="-446.2129" y1="-1237.5164" x2="1898.7871" y2="1107.4836">
		<stop  offset="0" style="stop-color:#387CF8"/>
		<stop  offset="1.944900e-03" style="stop-color:#387CF7"/>
		<stop  offset="0.1422" style="stop-color:#4260D2"/>
		<stop  offset="0.2875" style="stop-color:#4A49B4"/>
		<stop  offset="0.4405" style="stop-color:#51379C"/>
		<stop  offset="0.6025" style="stop-color:#552B8B"/>
		<stop  offset="0.7795" style="stop-color:#582381"/>
		<stop  offset="1" style="stop-color:#59217E"/>
	</linearGradient>
	<rect x="-781.2" y="-902.5" class="st0" width="3015" height="1675"/>
	<linearGradient id="SVGID_2_" gradientUnits="userSpaceOnUse" x1="596.991" y1="-589.1733" x2="2096.2175" y2="910.0532">
		<stop  offset="0" style="stop-color:#387CF8"/>
		<stop  offset="1.944900e-03" style="stop-color:#387CF7"/>
		<stop  offset="0.1422" style="stop-color:#4260D2"/>
		<stop  offset="0.2875" style="stop-color:#4A49B4"/>
		<stop  offset="0.4405" style="stop-color:#51379C"/>
		<stop  offset="0.6025" style="stop-color:#552B8B"/>
		<stop  offset="0.7795" style="stop-color:#582381"/>
		<stop  offset="1" style="stop-color:#59217E"/>
	</linearGradient>
	<path class="st1" d="M8.5,772.5h2225.3v-1675H910.3C775-762.9,698.4-556.3,748.8-362.3c78.9,303.7-102.7,471.9-304.3,543
		C242.8,251.9-91.6,464.9-16.7,710C-10,731.9-1.5,752.8,8.5,772.5z"/>
	<linearGradient id="SVGID_3_" gradientUnits="userSpaceOnUse" x1="171.0713" y1="-288.8943" x2="620.479" y2="160.5135">
		<stop  offset="0" style="stop-color:#59217E"/>
		<stop  offset="0.2205" style="stop-color:#582381"/>
		<stop  offset="0.3975" style="stop-color:#552B8B"/>
		<stop  offset="0.5595" style="stop-color:#51379C"/>
		<stop  offset="0.7125" style="stop-color:#4A49B4"/>
		<stop  offset="0.8578" style="stop-color:#4260D2"/>
		<stop  offset="0.9981" style="stop-color:#387CF7"/>
		<stop  offset="1" style="stop-color:#387CF8"/>
	</linearGradient>
	<path class="st2" d="M444.5,180.7c201.6-71.1,383.2-239.3,304.3-543C698.4-556.3,775-762.9,910.3-902.5H784.7
		c-81.2,137.4-116.5,302.6-75.5,460.3c86.8,334-113,519-334.7,597.3c-221.8,78.3-589.7,312.6-507.3,582.1
		c3.7,12.1,7.9,23.8,12.5,35.3H8.5c-10-19.6-18.5-40.6-25.2-62.5C-91.6,464.9,242.8,251.9,444.5,180.7z"/>
	<g>
		<path class="st3" d="M1310.8-807v28.1h-4.6v-12h-14.8v12h-4.6V-807h4.6v11.9h14.8V-807H1310.8z"/>
		<path class="st3" d="M1325.7-798.7c5.4,0,10.4,3.5,10.4,10.2c0,6.7-5,10.2-10.4,10.2c-5.4,0-10.4-3.5-10.4-10.2
			C1315.3-795.2,1320.3-798.7,1325.7-798.7z M1325.7-794.8c-3.6,0-6.1,2.5-6.1,6.2c0,3.8,2.5,6.2,6.1,6.2c3.6,0,6.1-2.5,6.1-6.2
			C1331.8-792.3,1329.3-794.8,1325.7-794.8z"/>
		<path class="st3" d="M1340.4-778.9v-19.3h3.8v2.4c1-1.2,3.3-2.9,6.4-2.9c2.9,0,4.9,1.2,6,3.1c1.7-1.7,3.9-3.1,6.8-3.1
			c5.1,0,7.3,3.8,7.3,7.8v12.1h-4.3v-11.9c0-2.5-1.5-4.1-3.8-4.1c-2.1,0-3.8,1.4-4.8,2.6c0,0.4,0.1,0.9,0.1,1.3v12.1h-4.3v-11.9
			c0-2.5-1.5-4.1-3.8-4.1c-2.3,0-4.1,1.7-5.1,3v13H1340.4z"/>
		<path class="st3" d="M1384.5-798.7c7.7,0,10.3,6.2,9.1,11.8H1379c0.5,3.5,3.9,4.9,7.4,4.9c2.3,0,4.5-0.6,6.1-1.4v3.7
			c-1.8,0.8-4.2,1.3-6.9,1.3c-5.9,0-10.9-3.4-10.9-10.2C1374.7-795.5,1380-798.7,1384.5-798.7z M1384.7-795.1c-2.9,0-5.5,1.7-5.7,5
			h10.7C1389.9-791.8,1388.9-795.1,1384.7-795.1z"/>
	</g>
	<g>
		<path class="st3" d="M1479.2-778.9l11.9-28.1h5l11.9,28.1h-4.8l-2.5-6.1h-14.1l-2.5,6.1H1479.2z M1488.2-789h10.9l-4.9-12
			c-0.2-0.4-0.3-0.9-0.5-1.6c-0.2,0.7-0.4,1.1-0.5,1.6L1488.2-789z"/>
		<path class="st3" d="M1515.2-807v11.3c1.3-1.5,3.6-3,7-3c5.8,0,9.6,4.6,9.6,10.2c0,5.5-3.8,10.2-9.6,10.2c-3.6,0-5.9-1.7-7.4-3.6
			v3.1h-3.8V-807H1515.2z M1521.4-794.9c-3,0-5.2,1.9-6.1,4v4.7c0.9,2.1,3.2,4.1,6.1,4.1c3.5,0,6-2.6,6-6.4
			C1527.4-792.3,1524.9-794.9,1521.4-794.9z"/>
		<path class="st3" d="M1545.2-798.7c5.4,0,10.4,3.5,10.4,10.2c0,6.7-5,10.2-10.4,10.2c-5.4,0-10.4-3.5-10.4-10.2
			C1534.7-795.2,1539.8-798.7,1545.2-798.7z M1545.2-794.8c-3.6,0-6.1,2.5-6.1,6.2c0,3.8,2.5,6.2,6.1,6.2c3.6,0,6.1-2.5,6.1-6.2
			C1551.3-792.3,1548.8-794.8,1545.2-794.8z"/>
		<path class="st3" d="M1578.1-798.2v19.3h-3.8v-2.7c-1.4,1.7-3.8,3.2-6.7,3.2c-5.1,0-8-3.3-8-7.9v-11.9h4.3v11.4
			c0,3.1,1.6,4.6,4.5,4.6c2.5,0,4.3-1.6,5.4-3.2v-12.8H1578.1z"/>
		<path class="st3" d="M1589.2-805.1v6.9h7v3.8h-7v8.8c0,2.5,1.2,3.4,3.7,3.4c1.4,0,2.7-0.3,3.9-0.8v3.7c-1.4,0.5-3.3,0.8-5.2,0.8
			c-3.7,0-6.6-1.8-6.6-6.3v-9.6h-3.5v-3.8h3.5v-5.8L1589.2-805.1z"/>
	</g>
	<g>
		<path class="st3" d="M1693.1-807.6c3.2,0,6.5,0.8,8.8,2.1v4.4c-2.3-1.5-5.4-2.4-8.4-2.3c-3.4,0-5.6,1-5.6,3.4
			c0,6.1,16.1,3.6,16.1,13.7c0,5.9-5,8-10.6,7.9c-3.8,0-7.2-0.9-10-2.4v-4.5c3.1,2,6.4,2.8,9.6,2.8c3.6,0,6.3-0.8,6.3-3.5
			c0-6.5-16.1-3.9-16.1-13.8C1683.2-805.1,1687.8-807.6,1693.1-807.6z"/>
		<path class="st3" d="M1716.4-798.7c7.7,0,10.3,6.2,9.1,11.8H1711c0.5,3.5,3.9,4.9,7.4,4.9c2.3,0,4.5-0.6,6.1-1.4v3.7
			c-1.8,0.8-4.2,1.3-6.9,1.3c-5.9,0-10.9-3.4-10.9-10.2C1706.7-795.5,1712-798.7,1716.4-798.7z M1716.6-795.1c-2.9,0-5.5,1.7-5.7,5
			h10.7C1721.9-791.8,1720.8-795.1,1716.6-795.1z"/>
		<path class="st3" d="M1741.8-798.6v4.2c-3.5-0.5-6.5,1-7.6,3.8v11.7h-4.3v-19.3h3.8v3.2C1735.2-797.4,1738.3-798.9,1741.8-798.6z"
			/>
		<path class="st3" d="M1763.9-798.2l-8.3,19.3h-4.5l-8.2-19.3h4.7l5.9,14.6l5.8-14.6H1763.9z"/>
		<path class="st3" d="M1769.3-801.9c-1.4,0-2.6-0.8-2.6-2.6c0-1.7,1.2-2.5,2.6-2.5c1.4,0,2.6,0.8,2.6,2.5
			C1771.9-802.7,1770.7-801.9,1769.3-801.9z M1767.2-778.9v-19.3h4.3v19.3H1767.2z"/>
		<path class="st3" d="M1786.4-798.7c2.2,0,4.3,0.5,5.9,1.5v3.9c-1.4-1-3.4-1.6-5.3-1.6c-3.4,0-6.9,1.8-6.9,6.3
			c0,4.4,3.3,6.3,6.8,6.3c2,0,4.1-0.6,5.6-1.5v4c-1.8,0.9-3.9,1.3-6.4,1.3c-5.1,0-10.4-3.1-10.4-10
			C1775.7-795.6,1781.2-798.7,1786.4-798.7z"/>
		<path class="st3" d="M1805.1-798.7c7.7,0,10.3,6.2,9.1,11.8h-14.5c0.5,3.5,3.9,4.9,7.4,4.9c2.3,0,4.5-0.6,6.1-1.4v3.7
			c-1.8,0.8-4.2,1.3-6.9,1.3c-5.9,0-10.9-3.4-10.9-10.2C1795.3-795.5,1800.6-798.7,1805.1-798.7z M1805.3-795.1
			c-2.9,0-5.5,1.7-5.7,5h10.7C1810.5-791.8,1809.5-795.1,1805.3-795.1z"/>
		<path class="st3" d="M1825.2-798.7c2.7,0,5.1,0.7,7,1.6v3.8c-1.6-1.1-4.4-1.9-6.7-1.9c-1.7,0-3.6,0.5-3.6,2.1c0,3.7,11.6,2,11.6,9
			c0,4.3-3.9,5.7-8.3,5.7c-2.8,0-5.7-0.7-7.6-1.8v-3.8c2,1.3,4.9,2,7.4,2c2.4,0,4.2-0.4,4.2-2c0-3.6-11.7-2.1-11.7-9
			C1817.5-797.2,1821.4-798.7,1825.2-798.7z"/>
	</g>
	<g>
		<path class="st3" d="M1935.1-807.6c2.8,0,5.6,0.6,8,1.8v4.5c-2-1.4-4.6-2.1-7.2-2.1c-5.4,0-11,3.2-11,10.6
			c0,6.9,5.7,10.1,11.1,10.1c2.9,0,5.5-0.8,7.4-2.2v4.5c-2.4,1.2-5.2,1.8-8.2,1.8c-7.3,0-15-4.7-14.9-14.3
			C1920.2-802.7,1927.7-807.6,1935.1-807.6z"/>
		<path class="st3" d="M1956.3-798.7c5.4,0,10.4,3.5,10.4,10.2c0,6.7-5,10.2-10.4,10.2c-5.4,0-10.4-3.5-10.4-10.2
			C1945.9-795.2,1951-798.7,1956.3-798.7z M1956.3-794.8c-3.6,0-6.1,2.5-6.1,6.2c0,3.8,2.5,6.2,6.1,6.2c3.6,0,6.1-2.5,6.1-6.2
			C1962.4-792.3,1959.9-794.8,1956.3-794.8z"/>
		<path class="st3" d="M1981.5-798.7c4.9,0,8,3.3,8,7.9v11.9h-4.3v-11.4c0-3.1-1.9-4.6-4.5-4.6c-2.5,0-4.3,1.6-5.4,3.2v12.8h-4.3
			v-19.3h3.8v2.7C1976.2-797.2,1978.6-798.7,1981.5-798.7z"/>
		<path class="st3" d="M2000.1-805.1v6.9h7v3.8h-7v8.8c0,2.5,1.2,3.4,3.7,3.4c1.4,0,2.7-0.3,3.9-0.8v3.7c-1.4,0.5-3.3,0.8-5.2,0.8
			c-3.7,0-6.6-1.8-6.6-6.3v-9.6h-3.5v-3.8h3.5v-5.8L2000.1-805.1z"/>
		<path class="st3" d="M2029-782c0.4,0,0.9-0.1,1.3-0.2v3.1c-0.8,0.3-1.8,0.5-2.7,0.5c-1.8,0-3.2-0.7-3.9-2.3
			c-1.9,1.5-4.3,2.5-7.3,2.5c-3.5,0-6.8-1.9-6.8-5.9c0-4.9,4.6-6.5,8.6-6.5c1.6,0,3.5,0.2,5,0.6v-0.7c0-2.4-1.8-4.1-5.1-4.1
			c-2.9,0-5.2,0.7-7,1.5v-3.9c1.5-0.5,4.3-1.3,7.4-1.3c5.5,0,8.9,2.6,8.9,8.4v6.9C2027.6-782.3,2028.3-782,2029-782z M2014.1-784.6
			c0,1.9,1.7,2.9,3.6,2.9c2,0,4.1-0.8,5.6-2.3v-3.3c-1.2-0.2-2.8-0.5-4.2-0.5C2016.7-787.7,2014.1-787,2014.1-784.6z"/>
		<path class="st3" d="M2042.7-798.7c2.2,0,4.3,0.5,5.9,1.5v3.9c-1.4-1-3.4-1.6-5.3-1.6c-3.4,0-6.9,1.8-6.9,6.3
			c0,4.4,3.3,6.3,6.8,6.3c2.1,0,4.1-0.6,5.6-1.5v4c-1.8,0.9-3.9,1.3-6.4,1.3c-5.1,0-10.4-3.1-10.4-10
			C2032.1-795.6,2037.6-798.7,2042.7-798.7z"/>
		<path class="st3" d="M2058.7-805.1v6.9h7v3.8h-7v8.8c0,2.5,1.2,3.4,3.7,3.4c1.4,0,2.7-0.3,3.9-0.8v3.7c-1.4,0.5-3.3,0.8-5.2,0.8
			c-3.7,0-6.6-1.8-6.6-6.3v-9.6h-3.5v-3.8h3.5v-5.8L2058.7-805.1z"/>
	</g>
	<g>
		<rect x="1273.3" y="-767.2" class="st3" width="134" height="3.3"/>
	</g>
</g>
<g>
	<g>
		<g>
			<g>
				<path class="st4" d="M195.2,312.2l-11.5,31.8c0,0-7.1,0.4-8.4,8c-1.3,7.6-2,49.8-2,49.8l-31.1-12c0.6-1.3,6.8-48.7,5.9-55.9
					c-0.9-7.2-11.5-19.2-2.3-34c5-8.1,4.6-17.9,3.3-25.2c-0.5-2.7-1.1-5-1.7-6.8c-0.3-0.9,0-1.8,0.5-2.5c0.6-0.7,1.6-1.1,2.6-0.8
					c2.6,0.7,6,2.3,8.6,6.1c1.9,2.8,2.4,7.6,3.5,12.3c4.7-4.6,16-4.4,21-2.7C192.3,283,195.2,312.2,195.2,312.2z"/>
				<path class="st5" d="M149.9,274.1l-0.9,0.4c-0.5-2.7-3.2-7.9-3.7-9.6c-0.3-0.9,1.6-0.8,2.3-0.2c0.5,0.2,1.1,1.1,1.3,1.6
					c0.8,1.4,1.7,3.3,2.3,4.9C151.6,272.4,151.1,273.7,149.9,274.1z"/>
			</g>
			<g>
				<g>
					<path class="st6" d="M185.6,349.6l-0.9,0.3c-3.1,0.9-6,0.1-6.5-1.7l-31.6-114.3l6.9-2l36.5,112.9
						C190.7,346.6,188.7,348.8,185.6,349.6z"/>
				</g>
				<path class="st6" d="M226,213.6L75.4,257.9c-4.2,1.2-8.8-1.2-10-5.4L24.1,114.8c-1.3-4.2,1.2-8.7,5.4-9.9l150.6-44.3
					c4.2-1.2,8.8,1.2,10,5.4l41.3,137.7C232.7,207.9,230.3,212.3,226,213.6z"/>
				<path class="st7" d="M196.6,214.4l-96,28.2c-14.9,4.4-30.8-4.1-35.2-18.9L39.9,139c-4.4-14.8,4.2-30.5,19.1-34.9l96-28.2
					c14.9-4.4,30.8,4.1,35.2,18.9l25.4,84.7C220.1,194.3,211.5,210,196.6,214.4z"/>
				<g>
					<path class="st8" d="M166.2,188.6c-1.4-4.6-4.8-6.1-10.2-4.6l-8.4,2.5l-16.1-53.8l-3.6-12c-1.2-4.1-2.3-6.6-3.3-7.4
						c-1-0.8-2.7-0.9-5.2-0.1c-2.6,0.8-6,1.9-10.2,3.5c-4.2,1.6-7.2,3-9,4.2c-3.5,2.4-4.8,5-3.9,7.9c1.2,4.1,4.3,5.4,9.2,3.9
						l8.1-2.4l4.5,15.1l13.7,45.7l-9.6,2.8c-5.5,1.6-7.5,4.8-6.1,9.5c0.7,2.3,2,3.8,4,4.6c2,0.8,4.1,0.8,6.5,0.1l33.6-9.9
						C165.7,196.7,167.7,193.4,166.2,188.6z"/>
				</g>
			</g>
			<g>
				<path class="st9" d="M185.8,281.9l-23.1,11.3c-1.9,1-3.7,0.7-4.7-1.2l-1.9-3.6c-1-1.9-0.3-4.3,1.7-5.3l18.2-10.7
					c2.4-1.4,5.5-0.5,7.1,1.3C182.9,273.7,189.6,280.1,185.8,281.9z"/>
				<path class="st9" d="M192.3,292.6l-23.5,12.3c-3.1,1.6-6.9,0.4-8.5-2.6l0,0c-1.6-3-0.4-6.8,2.6-8.4l23.5-12.3
					c3.1-1.6,5.8-2.6,8.5,2.6l0,0C197.8,288.2,195.4,291,192.3,292.6z"/>
				<path class="st9" d="M195.2,302.5l-19,8.9c-2.6,1.4-5.4,1.2-6.8-1.5l0,0c-1.4-2.6-0.4-5.9,2.3-7.3l18.5-9.7
					c2.6-1.4,5.2-2.9,7.3,2.2l0,0C199.2,298.7,197.8,301.1,195.2,302.5z"/>
				<path class="st9" d="M198.5,311l-10.8,5.7c-2.3,1.2-5.1,0.3-6.3-1.9l0,0c-1.2-2.3-0.3-5.1,1.9-6.3l10.8-5.7
					c2.3-1.2,5.1-0.3,6.3,1.9l0,0C201.6,307,200.8,309.8,198.5,311z"/>
				<path class="st5" d="M156.5,286.2c1.3-0.9,3.1-2,4.8-2.6c1.1-0.5,2.4,0,3,1.1l1.6,3.1c0.6,1.1,0.2,2.4-0.9,3
					c-1.3,0.7-3.2,1.6-5.1,2.3c-1.3,0.5-2.8-0.1-3.4-1.4l-1-2C155,288.4,155.3,286.9,156.5,286.2z"/>
				<path class="st5" d="M160.3,298.3c1.3-0.9,3.1-2,4.7-2.6c1.1-0.5,2.4,0,3,1.1l1.6,3.1c0.6,1.1,0.2,2.4-0.9,2.9
					c-1.3,0.7-3.1,1.6-5,2.3c-1.3,0.5-2.8-0.1-3.4-1.4l-1-2C158.7,300.5,159.1,299.1,160.3,298.3z"/>
				<path class="st5" d="M168.8,306.2c1.1-0.7,2.6-1.7,4-2.2c1-0.4,2,0,2.5,0.9l1.4,2.6c0.5,0.9,0.1,2-0.8,2.5
					c-1.1,0.6-2.7,1.4-4.3,1.9c-1.1,0.4-2.3-0.1-2.9-1.2l-0.8-1.7C167.5,308.1,167.9,306.9,168.8,306.2z"/>
				<path class="st5" d="M180.9,311.9c1-0.6,2.3-1.4,3.5-1.9c0.8-0.3,1.8,0,2.2,0.8l1.2,2.3c0.4,0.8,0.1,1.8-0.7,2.2
					c-1,0.5-2.3,1.2-3.7,1.7c-1,0.3-2-0.1-2.5-1l-0.7-1.4C179.8,313.5,180.1,312.4,180.9,311.9z"/>
			</g>
			<path class="st10" d="M190.4,477.4h-63.1c2.8-35.4,17.1-130.3,17.1-130.3s1.1,0.3,3,0.9c6.4,2,21.5,7.5,27,15.6
				c0.6,0.8,1.1,1.7,1.4,2.6C175.8,366.2,191.5,447.8,190.4,477.4z"/>
		</g>
		<g>
			<g>
				<path class="st4" d="M818.5,427.8c0.5,15.8,2.6,41.6,2.9,42.5l-21.7,7.1h-8.7c0.2-6.7,0.8-23.6,0.8-35c0-4.5-0.1-8.2-0.3-9.9
					c-0.3-2.8-1.5-4.7-2.9-5.9c-2.3-2-4.2-4.4-5.7-7c-0.8-1.4-1.4-3-1.9-4.5l-3.2-10.5l-3.2-10.5l-0.2-0.6c0,0,0.6-3.8,1.7-8.6
					c0,0,0-0.1,0-0.1v0c0.7-2.9,1.6-6.3,2.7-9.4c0.1-0.2,0.1-0.4,0.2-0.6c1.5-4.1,3.4-7.8,5.6-9.9c0,0,0,0,0,0
					c0.8-0.7,1.6-1.2,2.4-1.4c2.9-0.8,8-1,12.4-0.1c3,0.6,5.8,1.8,7.6,3.7c0.2-0.7,0.4-1.5,0.6-2.2c1-3.7,1.7-7.2,3.4-9.4
					c1.2-1.5,2.5-2.6,3.7-3.5c1.7-1.1,3.4-1.7,4.8-1.9c0.9-0.2,1.7,0.1,2.3,0.7c0.1,0.1,0.1,0.1,0.2,0.2c0.5,0.6,0.7,1.5,0.4,2.4
					c-0.6,1.7-1.4,3.9-2,6.4c-1.7,6.9-2.5,16.4,1.8,24.3c8,14.7-2.7,25.6-3.9,32.5C818.4,418.2,818.3,422.4,818.5,427.8z"/>
				<path class="st5" d="M819.9,359.3l0.8,0.4c0.6-2.5,3.4-7.4,4.1-9c0.3-0.9-1.5-0.8-2.2-0.3c-0.5,0.2-1.1,1-1.4,1.5
					c-0.8,1.3-1.8,3-2.4,4.6C818.4,357.6,818.9,358.8,819.9,359.3z"/>
			</g>
			<g>
				<g>
					<path class="st6" d="M766.9,437.9l0.9,0.4c2.9,1.4,5.9,1.1,6.7-0.6l50.7-107.3l-6.5-3.2l-55.3,105.1
						C762.5,434,764.1,436.5,766.9,437.9z"/>
				</g>
				<path class="st6" d="M750.4,297l140.8,68.9c4,1.9,8.8,0.3,10.8-3.6l64.3-128.8c2-3.9,0.3-8.7-3.7-10.7l-140.8-68.9
					c-4-1.9-8.8-0.3-10.8,3.6l-64.3,128.8C744.8,290.2,746.5,295,750.4,297z"/>
				<path class="st7" d="M779.3,302.7l89.8,44c14,6.8,31,1.1,37.9-12.7l39.5-79.2c6.9-13.8,1.1-30.7-12.8-37.6l-89.8-44
					c-14-6.8-31-1.1-37.9,12.7l-39.5,79.2C759.6,279,765.4,295.9,779.3,302.7z"/>
				<path class="st8" d="M894,222.6l-27.4-11.4c-3-1.3-5.4-1.7-7-1.1c-1.6,0.5-3.3,2.2-5,5.1c-7.3,12.1-12,19.9-14,23.4
					c-0.1,0.3-0.8,1.4-2.1,3.3c-1,1.6-1.5,2.6-1.7,3.1c-2,4.7-1.2,7.8,2.5,9.4c1.8,0.7,4.5,1.2,8.2,1.5c3.7,0.3,6.4,0.8,8.2,1.5
					c9.3,3.9,11.8,10.9,7.5,21.1c-2,4.6-5,7.9-9,9.8c-4,1.9-8.3,1.9-13,0c-4-1.7-7.4-4.7-10.3-9.2c-2.8-4.4-4.9-6.9-6.3-7.5
					c-1.8-0.7-3.5-0.7-5.2,0.2c-1.7,0.9-2.9,2.2-3.7,3.9c-0.9,2.1-0.9,4.5-0.1,7.1c1.3,4.1,3.9,8.1,7.9,11.9c3.6,3.5,7.6,6.1,11.9,8
					c6.3,2.7,12.8,3.4,19.3,2.3c6.6-1.1,12.3-4.1,17.1-8.8c3.2-3.2,5.9-7.2,8.1-12.2c3.3-7.6,3.7-15.1,1.4-22.3
					c-2.3-7.6-7.3-13.1-15-16.3c-3.1-1.3-6.6-2.1-10.5-2.3l9.8-16.2l22.8,9.5c5.6,2.4,9.4,1.3,11.3-3.2
					C901.7,228.5,899.8,225,894,222.6z"/>
			</g>
			<g>
				<path class="st9" d="M785.2,365l21.6,12c1.8,1.1,3.5,0.8,4.6-0.9l2-3.3c1.1-1.8,0.5-4.1-1.3-5.2l-16.9-11.2
					c-2.2-1.4-5.3-0.8-6.8,0.9C788.3,357.2,781.6,363,785.2,365z"/>
				<path class="st9" d="M778.4,374.8l21.9,13c2.8,1.7,6.6,0.8,8.3-2l0,0c1.7-2.8,0.8-6.5-2.1-8.2l-21.9-13c-2.8-1.7-5.5-2.8-8.3,2
					l0,0C773.4,370.4,775.5,373.1,778.4,374.8z"/>
				<path class="st9" d="M775.1,384.2l17.8,9.5c2.5,1.5,5.1,1.4,6.6-1.1l0,0c1.5-2.4,0.7-5.6-1.8-7.1l-17.2-10.2
					c-2.5-1.5-4.9-3-7.1,1.8l0,0C771.5,380.3,772.7,382.7,775.1,384.2z"/>
				<path class="st9" d="M771.5,392.2l10.1,6c2.1,1.3,4.9,0.6,6.2-1.5l0,0c1.3-2.1,0.6-4.8-1.5-6.1l-10.1-6
					c-2.1-1.3-4.9-0.6-6.2,1.5l0,0C768.7,388.2,769.4,390.9,771.5,392.2z"/>
				<path class="st5" d="M813,370.5c-1.2-0.9-2.9-2-4.5-2.8c-1.1-0.5-2.3-0.1-2.9,0.9l-1.7,2.9c-0.6,1-0.3,2.3,0.7,2.9
					c1.2,0.7,3,1.7,4.7,2.5c1.2,0.5,2.7,0,3.3-1.1l1-1.9C814.4,372.7,814.1,371.2,813,370.5z"/>
				<path class="st5" d="M808.8,381.9c-1.2-0.9-2.9-2-4.4-2.7c-1.1-0.5-2.3-0.1-2.9,0.9l-1.7,2.9c-0.6,1-0.3,2.3,0.7,2.9
					c1.2,0.7,2.9,1.7,4.7,2.4c1.2,0.5,2.6,0,3.3-1.1l1-1.8C810.2,384.1,809.8,382.7,808.8,381.9z"/>
				<path class="st5" d="M800.2,389.1c-1-0.8-2.5-1.7-3.7-2.3c-0.9-0.4-2-0.1-2.5,0.7l-1.4,2.4c-0.5,0.8-0.2,1.9,0.6,2.4
					c1,0.6,2.5,1.4,4,2.1c1,0.4,2.3,0,2.8-1l0.9-1.6C801.3,390.9,801.1,389.7,800.2,389.1z"/>
				<path class="st5" d="M788.4,393.9c-0.9-0.7-2.1-1.5-3.2-2c-0.8-0.4-1.7-0.1-2.1,0.6l-1.3,2.1c-0.4,0.7-0.2,1.7,0.5,2.1
					c0.9,0.5,2.2,1.2,3.4,1.8c0.9,0.4,2,0,2.4-0.8l0.8-1.4C789.3,395.5,789.1,394.5,788.4,393.9z"/>
			</g>
			<path class="st11" d="M827.3,477.4h-43.2c3.5-18.5,6.6-32.7,6.6-32.7c0.3-0.8,0.7-1.5,1.2-2.3c5.4-7.9,20.4-12.9,26.6-14.7
				c1.7-0.5,2.7-0.7,2.7-0.7S824.2,450.2,827.3,477.4z"/>
		</g>
		<g>
			<path class="st4" d="M353.7,357.7c0,0.1,0,0.2,0,0.2c-0.1,4-0.5,7-0.5,7l-0.6,1l-12,19.4c-0.8,1.3-1.9,2.5-3.1,3.4
				c-0.9,0.6-1.9,1.2-3,1.5c-1.7,0.5-3.6,1.6-4.8,4.2c-0.1,0.3-0.3,0.5-0.4,0.8c0,0-1.1,31.6-3.5,61.9c-0.6,7-1.2,13.9-1.9,20.4
				h-52.3c3.4-9.8,7.6-21.5,12-33.3c0,0,0,0,0,0c12.2-33.1,25.6-67.5,25.6-67.5c0.1-0.7,0.2-1.3,0.3-1.7c0.5-6.3-6.3-18.3,4.1-29.2
				c5.7-6,7.1-14.4,7.3-20.8c0-2.4-1.3-7.2-1.4-8.8c-0.1-0.8,1.5-0.4,2,0.3c0.1,0.1,0.2,0.2,0.3,0.4c0.6-0.4,1.4-0.5,2.1-0.1
				c2.1,1,4.7,3,6.2,6.7c0.4,1,0.6,2.1,0.7,3.4c0.1,1.5,0.1,3.1,0.1,4.8c0,0.8,0,1.6,0,2.4c0,0.1,0,0.3,0,0.4
				c0.1-0.1,0.2-0.1,0.3-0.2c2.3-1.3,5.6-1.6,8.9-1.2c3.6,0.4,7,1.6,9.1,2.8c0.9,0.5,1.6,1.3,2.1,2.4c0,0.1,0.1,0.1,0.1,0.2
				c1.3,2.5,1.9,6.2,2.2,10.1c0,0.1,0,0.3,0,0.4C353.8,351.9,353.8,355,353.7,357.7z"/>
			<g>
				<g>
					<path class="st6" d="M331.5,394.4l-1-0.1c-3.2-0.2-5.7-1.9-5.5-3.8l10.5-118l7.2,0.5l-5.4,118.4
						C337.3,393.3,334.7,394.7,331.5,394.4z"/>
				</g>
				<path class="st6" d="M417.2,280.8l-156.8-10.4c-4.4-0.3-7.8-4.1-7.5-8.5l9.7-143.3c0.3-4.4,4.2-7.7,8.6-7.4l156.8,10.4
					c4.4,0.3,7.8,4.1,7.5,8.5l-9.7,143.3C425.5,277.7,421.6,281.1,417.2,280.8z"/>
				<path class="st7" d="M389.3,271.4l-100-6.6c-15.5-1-27.4-14.5-26.4-29.9l5.9-88.2c1-15.4,14.6-27.1,30.1-26.1l100,6.6
					c15.5,1,27.4,14.5,26.4,29.9l-5.9,88.2C418.4,260.7,404.9,272.4,389.3,271.4z"/>
				<path class="st8" d="M352,209.9c7.3-8.1,12.2-13.8,14.6-17c4.3-5.9,6.7-11.7,7-17.5c0.5-7.8-1.8-14.3-7-19.7
					c-5-5.1-11.5-7.9-19.4-8.4c-7.2-0.5-13.5,0.8-18.7,3.9c-5.5,3.2-9.6,8.1-12.1,14.6c-1.2,3-1.8,6.1-2,9.1
					c-0.2,2.7,0.4,4.9,1.7,6.6c1.4,2,3.3,3.1,6,3.2c3,0.2,5.2-1.1,6.7-3.7c0.4-0.8,1.4-3.6,2.9-8.4c1.2-3.7,2.7-6.2,4.4-7.5
					c2.6-1.9,5.5-2.8,8.8-2.6c3.4,0.2,6.1,1.5,8.1,3.8c2,2.3,2.9,5.2,2.7,8.5c-0.2,3-1.7,6.6-4.5,10.9c-3.3,4.2-5.9,7.3-7.7,9.4
					c-5.2,6.2-11.7,13.5-19.4,21.9c-5.1,5.2-8.9,9.1-11.5,11.7c-1.8,2-2.7,3.7-2.8,5.3c-0.3,4.9,2.6,7.6,8.8,8l42.8,2.7
					c6.9,0.4,10.5-1.8,10.8-6.7c0.3-5-2.9-7.8-9.7-8.2l-28.2-1.8C342.3,220.2,348.2,214.1,352,209.9z"/>
			</g>
			<g>
				<path class="st9" d="M350.4,338.5l-22,3.6c-1.9,0.4-3.2-0.4-3.6-2.2l-0.7-3.4c-0.4-1.8,0.9-3.6,2.7-4l17.8-4.3
					c2.3-0.5,4.7,0.9,5.5,2.8C350.2,330.9,354.1,337.9,350.4,338.5z"/>
				<path class="st9" d="M353.1,348.9l-22.6,4.3c-2.9,0.6-5.8-1.4-6.4-4.3l0,0c-0.6-2.9,1.4-5.8,4.3-6.3l22.6-4.3
					c2.9-0.6,5.5-0.7,6.4,4.3l0,0C358.7,346.7,356,348.4,353.1,348.9z"/>
				<path class="st9" d="M353,357.8l-18,2.6c-2.5,0.5-4.8-0.4-5.2-2.9l0,0c-0.5-2.5,1.2-5,3.7-5.4l17.8-3.4c2.5-0.5,5.1-1.1,5.5,3.7
					l0,0C357.2,355.7,355.5,357.4,353,357.8z"/>
				<path class="st9" d="M353.5,365.7l-10.4,2c-2.2,0.4-4.3-1-4.7-3.2l0,0c-0.4-2.2,1-4.3,3.2-4.7l10.4-2c2.2-0.4,4.3,1,4.7,3.2l0,0
					C357.1,363.2,355.7,365.3,353.5,365.7z"/>
				<path class="st5" d="M325.1,334.7c1.3-0.4,3.1-0.8,4.6-1c1.1-0.1,2,0.6,2.2,1.6l0.6,3c0.2,1-0.5,2-1.5,2.2
					c-1.3,0.3-3,0.5-4.8,0.6c-1.2,0.1-2.3-0.8-2.5-2l-0.3-1.9C323.2,336.1,323.9,335,325.1,334.7z"/>
				<path class="st5" d="M325.1,345.7c1.3-0.4,3.1-0.8,4.6-1c1-0.1,2,0.6,2.2,1.6l0.6,2.9c0.2,1-0.5,2-1.5,2.2
					c-1.3,0.3-3,0.5-4.7,0.6c-1.2,0.1-2.3-0.8-2.4-2l-0.3-1.9C323.3,347.1,324,346,325.1,345.7z"/>
				<path class="st5" d="M330.2,354.4c1.1-0.3,2.6-0.7,3.9-0.8c0.9-0.1,1.7,0.5,1.9,1.4l0.5,2.5c0.2,0.9-0.4,1.7-1.3,1.9
					c-1.1,0.2-2.6,0.5-4,0.5c-1,0.1-1.9-0.7-2.1-1.7l-0.3-1.6C328.6,355.6,329.2,354.7,330.2,354.4z"/>
				<path class="st5" d="M338.7,362.1c1-0.3,2.3-0.6,3.4-0.7c0.8-0.1,1.5,0.4,1.6,1.2l0.4,2.2c0.1,0.8-0.3,1.5-1.1,1.6
					c-0.9,0.2-2.2,0.4-3.5,0.5c-0.9,0-1.7-0.6-1.8-1.4l-0.2-1.4C337.4,363.1,337.9,362.3,338.7,362.1z"/>
			</g>
			<path class="st8" d="M325.8,457.1c-0.6,7-1.2,13.9-1.9,20.4h-52.3c3.4-9.8,7.6-21.5,12-33.3c0,0,0,0,0,0S293.2,465.5,325.8,457.1
				z"/>
		</g>
		<g>
			<g>
				<path class="st4" d="M560.4,476.7l-1.5,0.8h-29c-1.3-9.9-3-22.7-4.3-29.7c-0.3-1.8-0.6-3.2-0.9-4.1c-0.4-1.5-1.1-2.7-1.8-3.6
					c-2.8-3.5-7.1-3.3-7.1-3.3l-3.2-6.6L501.9,408v0l-0.3-0.6c0,0,0-3.8,0.4-8.9c0,0,0-0.1,0-0.1c0.2-3,0.6-6.5,1.2-9.8
					c0-0.2,0.1-0.4,0.1-0.6v0c0.8-4.3,2.1-8.3,4-10.7c0,0,0,0,0,0c0.7-0.8,1.4-1.4,2.2-1.8c2.7-1.2,7.5-2.2,12-2
					c3.3,0.1,6.4,0.8,8.5,2.5c0.1-0.8,0.2-1.5,0.3-2.3c0.2-2.1,0.4-4.1,0.7-5.9l0,0c0.3-1.5,0.6-2.9,1.2-4c2.1-4,5.2-5.8,7.7-6.8
					c0.9-0.3,1.7-0.1,2.4,0.4c0.1,0.1,0.2,0.1,0.2,0.2c0.6,0.6,0.9,1.4,0.8,2.3c-0.4,1.7-0.7,3.9-0.9,6.4c0,0.1,0,0.2,0,0.3
					c-0.6,7.2,0.1,16.7,5.7,23.9c10.4,13.4,1.4,25.9,1.3,33c-0.1,1.9,0.7,6.8,1.9,12.8C554.1,452,560,475.8,560.4,476.7z"/>
				<path class="st8" d="M541.2,366.3l0.9,0.3c0.2-2.6,2.3-7.9,2.6-9.6c0.2-0.9-1.6-0.6-2.3,0.1c-0.4,0.3-0.9,1.2-1.1,1.7
					c-0.6,1.4-1.3,3.3-1.7,5C539.4,364.8,540.1,365.9,541.2,366.3z"/>
			</g>
			<path class="st12" d="M573.5,477.4h-52.9c0.2-4.5,0.5-8.6,0.7-12.1c0.7-8.9,4.3-17.5,4.3-17.5c14.9-2.6,25.4-11.5,25.4-11.5
				s7.8,1.7,11.7,11.9C565.9,456.5,569.7,466.7,573.5,477.4z"/>
			<g>
				<g>
					<path class="st6" d="M514,459l1,0.1c3.2,0.4,6-0.8,6.2-2.7L534,338.6l-7.2-0.9l-18,117.2C508.6,456.7,510.9,458.6,514,459z"/>
				</g>
				<path class="st6" d="M452.3,331L608.1,351c4.4,0.6,8.5-2.5,9-6.9l18.7-142.4c0.6-4.4-2.6-8.4-7-8.9l-155.8-20.1
					c-4.4-0.6-8.5,2.5-9,6.9L445.4,322C444.8,326.4,447.9,330.4,452.3,331z"/>
				<path class="st7" d="M481.5,327.1l99.3,12.8c15.4,2,29.7-8.9,31.7-24.2l11.5-87.6c2-15.3-9-29.4-24.4-31.4l-99.3-12.8
					c-15.4-2-29.7,8.9-31.7,24.2l-11.5,87.6C455.1,311,466.1,325.1,481.5,327.1z"/>
				<path class="st8" d="M567.4,240c0.9-7.2-0.9-13.3-5.3-18.3c-4.4-5-10.2-7.9-17.6-8.8c-5.5-0.6-10.6-0.1-15.5,1.7
					c-5.3,1.9-9.5,4.9-12.4,9.1c-1.8,2.5-2.8,5.1-3.2,7.7c-0.3,2.1,0.2,4.2,1.3,6.2c1.1,2,2.7,3.1,4.8,3.3c2.9,0.3,5.1-0.9,6.5-3.8
					c1.8-3.8,3.7-6.4,5.8-7.8c2.5-1.6,5.7-2.2,9.7-1.7c3.2,0.4,5.6,1.6,7.3,3.7c1.7,2.1,2.3,4.7,1.9,7.9c-0.6,5.3-2.7,8.9-6.2,10.6
					c-0.1,0.1-3.3,0.9-9.7,2.4c-3.4,0.9-5.3,2.9-5.7,6c-0.5,4.2,2,6.9,7.6,8.1c9.8,2.1,14.3,7.4,13.3,15.8c-0.4,3.4-1.4,6.2-2.8,8.3
					c-3.1,4.2-7.7,5.9-13.8,5.2c-4.5-0.5-8-2.5-10.5-5.8c-0.5-0.6-2-3.5-4.6-8.9c-1.6-3.2-3.6-5-5.8-5.2c-2.2-0.3-4,0.3-5.6,1.7
					c-1.6,1.4-2.5,3.1-2.7,5.3c-0.9,7.5,2.3,14.3,9.7,20.6c4.6,3.9,10.5,6.3,17.6,7.2c9.2,1.1,17.1-0.6,23.7-5.1
					c7-4.7,11-11.5,12.1-20.4c1.4-11.5-3-20-13-25.4C561.9,255.1,566.4,248.7,567.4,240z"/>
			</g>
			<g>
				<path class="st9" d="M507.5,377.4l23.4,8.6c2,0.8,3.6,0.3,4.4-1.7l1.5-3.6c0.8-1.9-0.2-4.2-2.1-5l-18.6-8.5
					c-2.4-1.1-5.4,0-6.7,1.9C509.4,369.1,503.6,376,507.5,377.4z"/>
				<path class="st9" d="M502.3,388.3l23.8,9.5c3.1,1.2,6.7-0.3,7.9-3.3l0,0c1.3-3.1-0.3-6.6-3.4-7.8l-23.8-9.5
					c-3.1-1.2-5.9-1.9-7.9,3.3l0,0C496.6,384.6,499.2,387,502.3,388.3z"/>
				<path class="st9" d="M500.6,398.1l19.2,6.7c2.7,1.1,5.3,0.6,6.4-2.1l0,0c1.1-2.7-0.2-5.7-2.9-6.8l-18.8-7.5
					c-2.7-1.1-5.3-2.3-6.8,2.9l0,0C496.4,394.8,497.9,397,500.6,398.1z"/>
				<path class="st9" d="M498.3,406.6l11,4.4c2.3,0.9,5-0.2,5.9-2.5l0,0c0.9-2.3-0.2-4.9-2.5-5.8l-11-4.4c-2.3-0.9-5,0.2-5.9,2.5
					l0,0C494.8,403,496,405.7,498.3,406.6z"/>
				<path class="st8" d="M535.8,378.4c-1.4-0.7-3.2-1.6-4.9-2.1c-1.1-0.3-2.3,0.2-2.8,1.3l-1.3,3.1c-0.4,1.1,0.1,2.3,1.2,2.8
					c1.3,0.5,3.2,1.2,5.1,1.7c1.3,0.3,2.7-0.4,3.1-1.7l0.7-2C537.5,380.4,536.9,379,535.8,378.4z"/>
				<path class="st8" d="M533.4,390.5c-1.4-0.7-3.2-1.6-4.8-2c-1.1-0.3-2.3,0.2-2.7,1.3l-1.2,3.1c-0.4,1.1,0.1,2.3,1.2,2.7
					c1.3,0.5,3.2,1.2,5,1.7c1.3,0.3,2.6-0.4,3.1-1.6l0.7-2C535.1,392.5,534.5,391.1,533.4,390.5z"/>
				<path class="st8" d="M526.3,399c-1.2-0.6-2.7-1.3-4.1-1.7c-1-0.3-2,0.2-2.3,1.1l-1.1,2.6c-0.4,0.9,0.1,2,1,2.3
					c1.1,0.5,2.7,1,4.3,1.4c1.1,0.3,2.2-0.3,2.6-1.4l0.6-1.7C527.8,400.7,527.3,399.6,526.3,399z"/>
				<path class="st8" d="M515.3,405.7c-1-0.5-2.4-1.2-3.6-1.5c-0.8-0.2-1.7,0.2-2,1l-0.9,2.3c-0.3,0.8,0.1,1.7,0.9,2
					c1,0.4,2.3,0.9,3.7,1.2c1,0.2,1.9-0.3,2.3-1.2l0.5-1.5C516.5,407.1,516.2,406.1,515.3,405.7z"/>
			</g>
		</g>
		<g>
			<g>
				<path class="st4" d="M721.1,252.6l-18.5,31.2c0,0-7.5-1-10.5,6.8c-3,7.8-12.1,52.1-12.1,52.1l-30.4-18.9
					c0.9-1.3,17-50.1,17.5-57.8c0.5-7.8-8.3-22.5,4.4-36.3c6.7-7.2,8.4-17.2,8.5-25.1c0-0.3,0-0.6,0-0.9c0-2.9-0.2-5.5-0.4-7.5
					c0-0.1,0-0.3,0-0.4c0-0.9,0.4-1.6,1.1-2.1c0.8-0.6,1.9-0.8,2.9-0.4c2.7,1.2,5.9,3.6,7.9,8.2c1.5,3.3,1,8.4,1.3,13.7
					c5.9-3.9,17.7-1.5,22.7,1.3C724,221.3,721.1,252.6,721.1,252.6z"/>
				<path class="st5" d="M683.1,202.7c0,1-0.9,1.8-2.2,1.9l-0.9,0c0-0.3,0-0.6,0-0.9c0-2.9-0.2-5.5-0.4-7.5c0-0.1,0-0.3,0-0.4
					c0.6,0.1,1.4,0.5,1.8,0.9c0.4,0.3,0.8,1.2,0.9,1.6C682.6,199.6,683.1,201.3,683.1,202.7z"/>
			</g>
			<path class="st10" d="M660.5,279.4c0,0,26.7,12.7,29.3,26.4c0,0,0.1,126.8-12.2,130.7c-12.3,3.9-65.2,4.6-64.3-10.5
				C614.2,410.8,660.5,279.4,660.5,279.4z"/>
			<g>
				<g>
					<path class="st6" d="M705.5,285.8l-1,0.1c-3.2,0.4-5.9-0.9-6.1-2.8L687,165.2l7.2-0.8l16.5,117.4
						C711,283.6,708.6,285.4,705.5,285.8z"/>
				</g>
				<path class="st6" d="M768.8,158.5l-156,18.2c-4.4,0.5-8.4-2.6-8.9-7L586.9,27.1c-0.5-4.4,2.7-8.3,7.1-8.9L750,0.1
					c4.4-0.5,8.4,2.6,8.9,7l16.9,142.6C776.4,154,773.2,158,768.8,158.5z"/>
				<path class="st7" d="M739.6,154.3l-99.5,11.6c-15.5,1.8-29.6-9.3-31.4-24.6l-10.4-87.8c-1.8-15.3,9.4-29.3,24.8-31.1l99.5-11.6
					c15.5-1.8,29.6,9.3,31.4,24.6l10.4,87.8C766.3,138.5,755.1,152.5,739.6,154.3z"/>
				<path class="st8" d="M711.7,100.1c-0.5-3.9-2.3-5.9-5.4-6c-0.8-0.3-2.9-0.3-6.3,0.1l-5.4-42.8c-0.6-5.2-2.2-9-4.7-11.3
					c-2.4-2.3-5.6-3.1-9.7-2.6c-3.2,0.4-5.7,1.5-7.7,3.3c-0.1,0.1-0.1,0.1-0.2,0.2c-1.7,1.5-3.2,3.9-4.8,7.2l-21,45.1
					c-2.4,5.2-3.4,9.8-2.9,13.8c0.7,5.4,4.7,7.6,12.1,6.7l30.3-3.7l1.8,14.7c0.8,6,3.6,8.7,8.5,8.1c5.5-0.7,7.9-4,7.2-9.9l-1.8-14.8
					c3.4-0.4,5.8-1.1,7.1-1.9C711.1,105.1,712,103.1,711.7,100.1z M659.1,99.3C672.3,70.6,679,56.2,679.2,56l5,40.2L659.1,99.3z"/>
			</g>
			<g>
				<path class="st9" d="M717.5,218.8l-0.2,0.1l-26.7,7.3c-1.7,0.5-3.2,0.2-4.1-0.9c-0.3-0.4-0.5-0.8-0.6-1.3l-1.3-4.1
					c-0.2-0.5-0.2-1-0.2-1.5c0.1-1.7,1.3-3.3,3-3.8l21.4-7.7c2.8-1,5.9,0.5,7.2,2.7C716,209.6,721.5,217.4,717.5,218.8z"/>
				<path class="st9" d="M727.2,225.5c0.2,2.5-1.3,4.1-3.4,5.1c-0.6,0.3-1.1,0.5-1.8,0.7l-26.4,8.1l-0.9,0.3c-2,0.6-4.1,0.2-5.8-0.9
					c-1.2-0.8-2.2-2-2.7-3.6c-0.1-0.5-0.2-1-0.3-1.4c-0.1-0.8,0-1.6,0.3-2.4c0.6-2.1,2.2-3.9,4.5-4.6l26.5-8.1l0.2-0.1l0.5-0.2
					c3.5-1.1,6.7-1.6,8.4,4.4C726.9,223.9,727.2,224.8,727.2,225.5z"/>
				<path class="st9" d="M727.2,236.8c0.2,2.9-1.4,4.7-3.9,5.5c-0.1,0-0.2,0.1-0.3,0.1l-4.8,1.2l-17.1,4.4c-1.8,0.6-3.6,0.5-4.9-0.3
					c-0.9-0.5-1.6-1.4-1.9-2.6c-0.1-0.4-0.2-0.8-0.2-1.2c-0.1-1,0.1-1.9,0.5-2.8c0.3-0.6,0.6-1.2,1.1-1.6c0.7-0.7,1.5-1.2,2.5-1.5
					l21.5-6.6c1.5-0.4,2.9-0.9,4.2-0.7c0,0,0,0,0,0c1.4,0.3,2.5,1.4,3.1,4.5C727.1,235.7,727.2,236.3,727.2,236.8z"/>
				<path class="st9" d="M728.4,246.9c0.2,2.3-1.2,4.5-3.5,5.1l-12.6,3.9c-1.5,0.5-3.1,0.2-4.4-0.7c-0.9-0.6-1.6-1.5-1.9-2.6
					c-0.1-0.4-0.2-0.7-0.2-1.1c-0.1-0.7,0-1.4,0.3-2c0.5-1.5,1.7-2.7,3.3-3.2l9-2.8l0,0l3.6-1.1c0.5-0.2,1-0.2,1.5-0.2c0,0,0,0,0,0
					c2.1,0,4.1,1.4,4.8,3.5C728.3,246.1,728.3,246.5,728.4,246.9z"/>
				<path class="st5" d="M693.6,223.9c-1.5,0.5-3.7,1.1-5.8,1.4c-0.4,0.1-0.9,0-1.3-0.1c-0.3-0.4-0.5-0.8-0.6-1.3l-1.3-4.1
					c-0.2-0.5-0.2-1-0.2-1.5c0.3-0.4,0.7-0.7,1.1-0.8c1.6-0.7,3.7-1.5,5.6-1.8c1.3-0.3,2.6,0.5,3,1.7l1.1,3.6
					C695.6,222.2,694.9,223.5,693.6,223.9z"/>
				<path class="st5" d="M695,237.4c-1.5,0.5-3.6,1.1-5.7,1.4c-0.1,0-0.2,0-0.3,0c-1.2-0.8-2.2-2-2.7-3.6c-0.1-0.5-0.2-1-0.3-1.4
					c-0.1-0.8,0-1.6,0.3-2.4c0.2-0.2,0.5-0.3,0.7-0.4c1.6-0.7,3.7-1.4,5.5-1.8c1.3-0.3,2.5,0.5,2.9,1.7l1.1,3.5
					C697,235.7,696.3,237,695,237.4z"/>
				<path class="st5" d="M701.3,246.5c-1.3,0.4-3.1,0.9-4.9,1.2c-0.1,0-0.1,0-0.1,0c-0.9-0.5-1.6-1.4-1.9-2.6
					c-0.1-0.4-0.2-0.8-0.2-1.2c-0.1-1,0.1-1.9,0.5-2.8c1.3-0.6,3.1-1.2,4.6-1.5c1.1-0.2,2.2,0.4,2.5,1.5l0.9,3
					C702.9,245.1,702.3,246.2,701.3,246.5z"/>
				<path class="st5" d="M712,254.2c-1.1,0.3-2.6,0.8-4.1,1c-0.9-0.6-1.6-1.5-1.9-2.6c-0.1-0.4-0.2-0.7-0.2-1.1
					c-0.1-0.7,0-1.4,0.3-2c0,0,0.1,0,0.1,0c1.2-0.5,2.7-1.1,4.1-1.3c0.9-0.2,1.9,0.4,2.2,1.3l0.8,2.6
					C713.4,252.9,712.9,253.9,712,254.2z"/>
			</g>
			<path class="st13" d="M665.1,275c0,0-9.8,6.1-14.7,17.1c0,0,14.4,10.9,21.7,13.1l10.7-10.7l-0.1,14c0,0,8.6,2.5,12.3,1.3
				c0,0,0.7-15-2.1-20.8C692.9,289,670.9,285.2,665.1,275z"/>
			<path class="st10" d="M668.9,299.4c-0.1-0.9,0.6-1.7,1.6-1.8c0.9-0.1,1.8,0.6,1.8,1.5c0.1,0.9-0.6,1.7-1.6,1.8
				C669.8,301,669,300.3,668.9,299.4z"/>
			<path class="st10" d="M683,477.4h-71.7c0.6-26.6,2-51.5,2-51.5l69.4-0.1c-0.2,0.6-0.4,1.4-0.6,2.3c0,0,0,0,0,0
				C680.7,436.4,681.6,457.8,683,477.4z"/>
		</g>
	</g>
	<path class="st14" d="M997.7,482.1H2.1c-1.2,0-2.1-1-2.1-2.1l0,0c0-1.2,1-2.1,2.1-2.1h995.6c1.2,0,2.1,1,2.1,2.1v0
		C999.8,481.1,998.9,482.1,997.7,482.1z"/>
</g>
</svg>
