<svg height='300px' width='300px'  fill="#000000" xmlns="http://www.w3.org/2000/svg" xmlns:xlink="http://www.w3.org/1999/xlink" version="1.1" x="0px" y="0px" viewBox="0 0 100 100" enable-background="new 0 0 100 100" xml:space="preserve"><path d="M54.5,36.7c-6.5,0-11.9,4.6-13,10.8h-3.3c-1.2-6.1-6.6-10.8-13-10.8c-7.3,0-13.3,6-13.3,13.3s6,13.3,13.3,13.3  c6.5,0,11.9-4.6,13-10.8h3.3c1.2,6.1,6.6,10.8,13,10.8c7.3,0,13.3-6,13.3-13.3S61.8,36.7,54.5,36.7z M25.1,58.3  c-4.6,0-8.3-3.7-8.3-8.3s3.7-8.3,8.3-8.3s8.3,3.7,8.3,8.3S29.7,58.3,25.1,58.3z M54.5,58.3c-4.6,0-8.3-3.7-8.3-8.3s3.7-8.3,8.3-8.3  s8.3,3.7,8.3,8.3S59,58.3,54.5,58.3z M25,74.5h30v-5H25V74.5z M87.8,74.4C92.4,67.3,95,59,95,50C95,25.1,74.9,5,50,5S5,25.1,5,50  c0,24.9,20.1,45,45,45c9.3,0,17.9-2.8,25.1-7.6L95,95L87.8,74.4L87.8,74.4z M79.7,83.8L79.7,83.8l-5.4-2.1l0,0  c-0.1,0-0.1,0.1-0.2,0.1c0,0,0,0,0,0c-0.8,0.6-1.6,1.1-2.4,1.7c0,0-0.1,0.1-0.1,0.1c-0.8,0.5-1.7,1-2.5,1.5l0,0  C63.4,88.2,56.9,90,50,90c-22.1,0-40-17.9-40-40c0-22.1,17.9-40,40-40s40,17.9,40,40c0,6.5-1.6,12.7-4.4,18.1l0,0  c-1,1.9-2.1,3.8-3.4,5.5l0,0l1.9,5.6l0,0l2.5,7.3L79.7,83.8z"></path></svg>