<?xml version="1.0" encoding="utf-8"?>
<!-- Generator: Adobe Illustrator 24.0.1, SVG Export Plug-In . SVG Version: 6.00 Build 0)  -->
<svg version="1.1" id="Layer_1" xmlns="http://www.w3.org/2000/svg" xmlns:xlink="http://www.w3.org/1999/xlink" x="0px" y="0px"
	 viewBox="0 0 270 270" style="enable-background:new 0 0 270 270;" xml:space="preserve">
<style type="text/css">
	.st0{fill:#FFFFFF;stroke:#FFFFFF;stroke-miterlimit:10;}
</style>
<path class="st0" d="M148.5,95.1c-19.5,0-35.7,13.8-39,32.4h-9.9c-3.6-18.3-19.8-32.4-39-32.4c-21.9,0-39.9,18-39.9,39.9
	s18,39.9,39.9,39.9c19.5,0,35.7-13.8,39-32.4h9.9c3.6,18.3,19.8,32.4,39,32.4c21.9,0,39.9-18,39.9-39.9S170.4,95.1,148.5,95.1z
	 M60.3,159.6c-13.8,0-24.9-11-24.9-24.7s11.1-24.7,24.9-24.7s24.9,11,24.9,24.7S74.1,159.6,60.3,159.6z M148.5,159.9
	c-13.8,0-24.9-11.1-24.9-24.9s11.1-24.9,24.9-24.9s24.9,11.1,24.9,24.9S162,159.9,148.5,159.9z M60,208.5h90v-15H60V208.5z
	 M246.4,210.8c13.8-21.3,21.6-46.2,21.6-73.2c0-74.7-60.3-135-135-135S-2,62.9-2,137.6s60.3,135,135,135c27.9,0,53.7-8.4,75.3-22.8
	l59.7,22.8L246.4,210.8L246.4,210.8z M224.1,236.4L224.1,236.4l-16.2-6.3l0,0c-0.3,0-0.3,0.3-0.6,0.3l0,0c-2.4,1.8-4.8,3.3-7.2,5.1
	l-0.3,0.3c-2.4,1.5-5.1,3-7.5,4.5l0,0c-17.1,9.3-36.6,14.7-57.3,14.7c-66.3,0-120-53.7-120-120S68.7,15,135,15s120,53.7,120,120
	c0,19.5-4.8,38.1-13.2,54.3l0,0c-3,5.7-6.3,11.4-10.2,16.5l0,0l5.7,16.8l0,0l7.5,21.9L224.1,236.4z"/>
</svg>
